<?xml version="1.0" encoding="UTF-8" standalone="no"?>
<!-- Created with Inkscape (http://www.inkscape.org/) -->

<svg
   width="318.77646mm"
   height="39.610516mm"
   viewBox="0 0 318.77646 39.610516"
   version="1.1"
   id="svg1"
   xml:space="preserve"
   xmlns:xlink="http://www.w3.org/1999/xlink"
   xmlns="http://www.w3.org/2000/svg"
   xmlns:svg="http://www.w3.org/2000/svg"><defs
     id="defs1"><linearGradient
       id="swatch703"
       gradientTransform="matrix(0.76715803,0,0,0.76715803,-2941.0132,-3161.7533)"><stop
         style="stop-color:#016daf;stop-opacity:1;"
         offset="0"
         id="stop703" /></linearGradient><linearGradient
       id="swatch704"
       gradientTransform="matrix(7.1838687e-4,0,0,7.520355e-4,60.640849,21.652183)"><stop
         style="stop-color:#fc411f;stop-opacity:1;"
         offset="0"
         id="stop704" /></linearGradient><linearGradient
       xlink:href="#swatch703"
       id="linearGradient34"
       gradientUnits="userSpaceOnUse"
       gradientTransform="matrix(0.03140069,0,0,0.03212767,61.671184,26.81622)" /><linearGradient
       xlink:href="#swatch703"
       id="linearGradient760"
       x1="663.59686"
       y1="469.14587"
       x2="3682.2529"
       y2="469.14587"
       gradientUnits="userSpaceOnUse" /><linearGradient
       xlink:href="#swatch703"
       id="linearGradient713"
       x1="557.10742"
       y1="1952.877"
       x2="2624.6426"
       y2="1952.877"
       gradientUnits="userSpaceOnUse" /><linearGradient
       xlink:href="#swatch704"
       id="linearGradient711"
       x1="1590.875"
       y1="1468.9716"
       x2="2164"
       y2="1468.9716"
       gradientUnits="userSpaceOnUse" /><linearGradient
       xlink:href="#swatch704"
       id="linearGradient712"
       x1="557.10742"
       y1="1468.9268"
       x2="1590.875"
       y2="1468.9268"
       gradientUnits="userSpaceOnUse" /><linearGradient
       xlink:href="#swatch703"
       id="linearGradient707"
       x1="568.76758"
       y1="2726.6309"
       x2="1315.6953"
       y2="2726.6309"
       gradientUnits="userSpaceOnUse" /><clipPath
       clipPathUnits="userSpaceOnUse"
       id="clipPath131-2"><rect
         style="display:inline;opacity:0.1;fill:#0000ff;fill-rule:evenodd;stroke-width:0.986013"
         id="rect132-3"
         width="1361.0105"
         height="742.36932"
         x="1353.9403"
         y="2690.2051" /></clipPath><linearGradient
       xlink:href="#swatch703"
       id="linearGradient708"
       x1="386.66913"
       y1="2859.8699"
       x2="3924.5439"
       y2="2859.8699"
       gradientUnits="userSpaceOnUse" /><linearGradient
       xlink:href="#swatch704"
       id="linearGradient709"
       x1="386.66913"
       y1="3088.0991"
       x2="3924.5439"
       y2="3088.0991"
       gradientUnits="userSpaceOnUse" /><linearGradient
       xlink:href="#swatch704"
       id="linearGradient710"
       x1="386.66913"
       y1="3316.3281"
       x2="3924.5439"
       y2="3316.3281"
       gradientUnits="userSpaceOnUse" /><linearGradient
       xlink:href="#swatch704"
       id="linearGradient704"
       x1="1930.1604"
       y1="2341.9985"
       x2="2520.5208"
       y2="2341.9985"
       gradientUnits="userSpaceOnUse" /><linearGradient
       xlink:href="#swatch703"
       id="linearGradient795"
       gradientUnits="userSpaceOnUse"
       gradientTransform="matrix(1.3993242,0,0,1.3993242,-8029.4072,-1340.4792)"
       x1="1907.5256"
       y1="772.49329"
       x2="3077.5776"
       y2="772.49329" /><linearGradient
       xlink:href="#swatch703"
       id="linearGradient61"
       gradientUnits="userSpaceOnUse"
       gradientTransform="matrix(0.03140069,0,0,0.03212767,61.671184,26.81622)" /><linearGradient
       xlink:href="#swatch703"
       id="linearGradient62"
       gradientUnits="userSpaceOnUse"
       gradientTransform="matrix(0.03140069,0,0,0.03212767,61.671184,26.81622)" /><linearGradient
       xlink:href="#swatch703"
       id="linearGradient63"
       gradientUnits="userSpaceOnUse"
       gradientTransform="matrix(0.03140069,0,0,0.03212767,61.671184,26.81622)" /><linearGradient
       xlink:href="#swatch703"
       id="linearGradient64"
       gradientUnits="userSpaceOnUse"
       gradientTransform="matrix(0.03140069,0,0,0.03212767,61.671184,26.81622)" /><linearGradient
       xlink:href="#swatch703"
       id="linearGradient65"
       gradientUnits="userSpaceOnUse"
       gradientTransform="matrix(0.03140069,0,0,0.03212767,61.671184,26.81622)" /><linearGradient
       xlink:href="#swatch703"
       id="linearGradient66"
       gradientUnits="userSpaceOnUse"
       gradientTransform="matrix(0.03140069,0,0,0.03212767,61.671184,26.81622)" /><linearGradient
       xlink:href="#swatch703"
       id="linearGradient67"
       gradientUnits="userSpaceOnUse"
       gradientTransform="matrix(0.03140069,0,0,0.03212767,61.671184,26.81622)" /><linearGradient
       xlink:href="#swatch703"
       id="linearGradient68"
       gradientUnits="userSpaceOnUse"
       gradientTransform="matrix(0.03140069,0,0,0.03212767,61.671184,26.81622)" /><linearGradient
       xlink:href="#swatch703"
       id="linearGradient69"
       gradientUnits="userSpaceOnUse"
       gradientTransform="matrix(0.03140069,0,0,0.03212767,61.671184,26.81622)" /><linearGradient
       xlink:href="#swatch703"
       id="linearGradient70"
       gradientUnits="userSpaceOnUse"
       gradientTransform="matrix(0.03140069,0,0,0.03212767,61.671184,26.81622)" /><linearGradient
       xlink:href="#swatch703"
       id="linearGradient71"
       gradientUnits="userSpaceOnUse"
       gradientTransform="matrix(0.03140069,0,0,0.03212767,61.671184,26.81622)" /><linearGradient
       xlink:href="#swatch703"
       id="linearGradient3"
       gradientUnits="userSpaceOnUse"
       x1="663.59686"
       y1="469.14587"
       x2="3682.2529"
       y2="469.14587" /><linearGradient
       xlink:href="#swatch704"
       id="linearGradient2"
       gradientTransform="scale(0.83558778,1.1967624)"
       x1="182.26173"
       y1="26.274231"
       x2="190.24719"
       y2="26.274231"
       gradientUnits="userSpaceOnUse" /><linearGradient
       xlink:href="#swatch704"
       id="linearGradient4"
       gradientTransform="scale(0.82714007,1.2089851)"
       x1="176.31404"
       y1="26.16061"
       x2="183.91476"
       y2="26.16061"
       gradientUnits="userSpaceOnUse" /></defs><g
     id="layer1"
     transform="translate(22.501509,-35.492445)"><g
       id="g74"
       transform="matrix(2.9615314,0,0,2.9615314,-174.51445,-56.969033)"><path
         style="font-weight:bold;font-size:408.6px;line-height:0.7;font-family:'HelveticaNeue 07472';-inkscape-font-specification:'HelveticaNeue 07472 Bold';letter-spacing:-15.3225px;word-spacing:0px;display:inline;fill:url(#linearGradient2);stroke-width:1.47152"
         d="m 154.99084,36.655569 c 0.88529,0 2.07851,-0.02625 2.07851,1.365247 0,0.866406 -0.64151,1.44401 -1.46265,1.44401 -1.05209,0 -1.53964,-0.813897 -1.57813,-1.811577 h -1.7321 c -0.0385,2.113506 1.32153,3.347479 3.33589,3.347479 1.75775,0 3.33588,-1.089572 3.33588,-3.019295 0,-1.023934 -0.60302,-1.864086 -1.59096,-2.087251 v -0.02625 c 0.83397,-0.236292 1.25737,-1.010807 1.25737,-1.877213 0,-1.640921 -1.57813,-2.546709 -3.01512,-2.546709 -1.84757,0 -3.04079,1.299609 -3.10494,3.176822 h 1.73209 c -0.0128,-0.94517 0.47472,-1.64092 1.38568,-1.64092 0.66717,0 1.2702,0.44633 1.2702,1.220845 0,1.050189 -1.12907,1.207717 -1.91172,1.142081 z"
         id="path34" /><path
         style="font-weight:bold;font-size:408.6px;line-height:0.7;font-family:'HelveticaNeue 07472';-inkscape-font-specification:'HelveticaNeue 07472 Bold';letter-spacing:-15.3225px;word-spacing:0px;display:inline;fill:url(#linearGradient4);stroke-width:1.47152"
         d="m 146.54208,40.816945 h 1.24454 l 0.35925,-2.599219 h 1.23171 l -0.34642,2.599219 h 1.24454 l 0.34642,-2.599219 h 1.11624 v -1.181463 h -0.94944 l 0.21811,-1.627794 h 1.11624 v -1.181462 h -0.94944 l 0.34642,-2.599219 h -1.24455 l -0.34641,2.599219 h -1.24455 l 0.35925,-2.599219 h -1.24454 l -0.35925,2.599219 h -1.21888 v 1.181462 h 1.06492 l -0.23095,1.627794 h -1.21888 v 1.181463 h 1.06492 z m 3.22041,-5.408476 -0.21811,1.627794 h -1.24455 l 0.23095,-1.627794 z"
         id="path33" /><path
         style="font-weight:bold;font-size:408.6px;line-height:0.7;font-family:'HelveticaNeue 07472';-inkscape-font-specification:'HelveticaNeue 07472 Bold';letter-spacing:-15.3225px;word-spacing:0px;display:inline;fill:url(#linearGradient61);stroke-width:1.47152"
         d="m 145.50925,37.876415 c 0.1283,-2.087252 -0.96228,-4.030102 -3.22041,-4.030102 -2.01436,0 -3.38721,1.549029 -3.38721,3.583771 0,2.100379 1.29587,3.570644 3.38721,3.570644 1.50115,0 2.59172,-0.682623 3.10494,-2.284162 h -1.60379 c -0.11548,0.420076 -0.70567,0.879534 -1.437,0.879534 -1.0136,0 -1.57813,-0.538222 -1.62945,-1.719685 z m -4.78571,-1.181464 c 0.0257,-0.525094 0.35925,-1.44401 1.51398,-1.44401 0.88529,0 1.28303,0.49884 1.44982,1.44401 z"
         id="path32" /><path
         style="font-weight:bold;font-size:408.6px;line-height:0.7;font-family:'HelveticaNeue 07472';-inkscape-font-specification:'HelveticaNeue 07472 Bold';letter-spacing:-15.3225px;word-spacing:0px;display:inline;fill:url(#linearGradient62);stroke-width:1.47152"
         d="m 138.62578,37.876415 c 0.1283,-2.087252 -0.96227,-4.030102 -3.22041,-4.030102 -2.01436,0 -3.3872,1.549029 -3.3872,3.583771 0,2.100379 1.29586,3.570644 3.3872,3.570644 1.50115,0 2.59173,-0.682623 3.10494,-2.284162 h -1.60379 c -0.11547,0.420076 -0.70567,0.879534 -1.437,0.879534 -1.01359,0 -1.57813,-0.538222 -1.62945,-1.719685 z m -4.78571,-1.181464 c 0.0257,-0.525094 0.35925,-1.44401 1.51398,-1.44401 0.88529,0 1.28303,0.49884 1.44983,1.44401 z"
         id="path31" /><path
         style="font-weight:bold;font-size:408.6px;line-height:0.7;font-family:'HelveticaNeue 07472';-inkscape-font-specification:'HelveticaNeue 07472 Bold';letter-spacing:-15.3225px;word-spacing:0px;display:inline;fill:url(#linearGradient63);stroke-width:1.47152"
         d="m 131.74232,37.876415 c 0.12831,-2.087252 -0.96227,-4.030102 -3.22041,-4.030102 -2.01436,0 -3.3872,1.549029 -3.3872,3.583771 0,2.100379 1.29586,3.570644 3.3872,3.570644 1.50115,0 2.59173,-0.682623 3.10494,-2.284162 h -1.60379 c -0.11547,0.420076 -0.70567,0.879534 -1.437,0.879534 -1.01359,0 -1.57813,-0.538222 -1.62945,-1.719685 z m -4.78571,-1.181464 c 0.0257,-0.525094 0.35925,-1.44401 1.51398,-1.44401 0.88529,0 1.28303,0.49884 1.44983,1.44401 z"
         id="path30" /><path
         style="font-weight:bold;font-size:408.6px;line-height:0.7;font-family:'HelveticaNeue 07472';-inkscape-font-specification:'HelveticaNeue 07472 Bold';letter-spacing:-15.3225px;word-spacing:0px;display:inline;fill:url(#linearGradient64);stroke-width:1.47152"
         d="m 124.85886,37.876415 c 0.12831,-2.087252 -0.96227,-4.030102 -3.22041,-4.030102 -2.01436,0 -3.3872,1.549029 -3.3872,3.583771 0,2.100379 1.29586,3.570644 3.3872,3.570644 1.50115,0 2.59173,-0.682623 3.10494,-2.284162 h -1.60379 c -0.11547,0.420076 -0.70567,0.879534 -1.43699,0.879534 -1.0136,0 -1.57813,-0.538222 -1.62946,-1.719685 z m -4.78571,-1.181464 c 0.0257,-0.525094 0.35925,-1.44401 1.51398,-1.44401 0.88529,0 1.28303,0.49884 1.44983,1.44401 z"
         id="path29" /><path
         style="font-weight:bold;font-size:408.6px;line-height:0.7;font-family:'HelveticaNeue 07472';-inkscape-font-specification:'HelveticaNeue 07472 Bold';letter-spacing:-15.3225px;word-spacing:0px;display:inline;fill:url(#linearGradient65);stroke-width:1.47152"
         d="m 110.34136,37.705759 c -0.0257,2.310416 1.87322,3.334351 3.90041,3.334351 2.48909,0 3.81061,-1.286482 3.81061,-3.006167 0,-2.126634 -2.05285,-2.559837 -2.72003,-2.730492 -2.29663,-0.603859 -2.73286,-0.695751 -2.73286,-1.417756 0,-0.787642 0.74416,-1.063317 1.38568,-1.063317 0.96227,0 1.74492,0.288802 1.80907,1.417756 h 1.95021 c 0,-2.166016 -1.75775,-3.019294 -3.66947,-3.019294 -1.65511,0 -3.4257,0.918915 -3.4257,2.835511 0,1.759067 1.37285,2.297289 2.73286,2.664855 1.34719,0.367566 2.72003,0.538222 2.72003,1.54903 0,0.958297 -1.07775,1.168335 -1.78341,1.168335 -1.07775,0 -2.0272,-0.485712 -2.0272,-1.732812 z"
         id="path28" /><path
         style="font-weight:bold;font-size:408.6px;line-height:0.7;font-family:'HelveticaNeue 07472';-inkscape-font-specification:'HelveticaNeue 07472 Bold';letter-spacing:-15.3225px;word-spacing:0px;display:inline;fill:url(#linearGradient66);stroke-width:1.47152"
         d="m 106.73603,34.030096 h -1.82191 v 3.557517 c 0,1.378373 -0.4234,1.94285 -1.41133,1.94285 -0.8468,0 -1.16756,-0.55135 -1.16756,-1.667176 v -3.833191 h -1.82191 v 4.174503 c 0,1.680303 0.48755,2.796129 2.42493,2.796129 0.76982,0 1.5653,-0.367567 2.02719,-1.128954 h 0.0385 v 0.945171 h 1.73209 z"
         id="path27" /><path
         style="font-weight:bold;font-size:408.6px;line-height:0.7;font-family:'HelveticaNeue 07472';-inkscape-font-specification:'HelveticaNeue 07472 Bold';letter-spacing:-15.3225px;word-spacing:0px;display:inline;fill:url(#linearGradient67);stroke-width:1.47152"
         d="m 97.889519,40.816945 h 1.732093 v -9.37294 h -1.821906 v 3.413115 h -0.02566 0.01283 c -0.423401,-0.669496 -1.19322,-1.010807 -1.97587,-1.010807 -1.950209,0 -2.938142,1.69343 -2.938142,3.518134 0,1.877214 0.975103,3.636281 2.976633,3.636281 0.846802,0 1.59096,-0.315057 2.014361,-1.05019 h 0.02566 z m -0.02566,-3.413116 c 0,1.115826 -0.359249,2.192271 -1.565299,2.192271 -1.129069,0 -1.603791,-1.115827 -1.603791,-2.179143 0,-1.115827 0.410571,-2.166016 1.603791,-2.166016 1.180389,0 1.565299,1.050189 1.565299,2.152888 z"
         id="path26" /><path
         style="font-weight:bold;font-size:408.6px;line-height:0.7;font-family:'HelveticaNeue 07472';-inkscape-font-specification:'HelveticaNeue 07472 Bold';letter-spacing:-15.3225px;word-spacing:0px;display:inline;fill:url(#linearGradient68);stroke-width:1.47152"
         d="m 89.472839,37.876415 c 0.128303,-2.087252 -0.962274,-4.030102 -3.220411,-4.030102 -2.014361,0 -3.387205,1.549029 -3.387205,3.583771 0,2.100379 1.295862,3.570644 3.387205,3.570644 1.501148,0 2.591725,-0.682623 3.104938,-2.284162 h -1.60379 c -0.115473,0.420076 -0.705668,0.879534 -1.436996,0.879534 -1.013596,0 -1.57813,-0.538222 -1.629451,-1.719685 z m -4.78571,-1.181464 c 0.02566,-0.525094 0.359249,-1.44401 1.513978,-1.44401 0.885292,0 1.283032,0.49884 1.449826,1.44401 z"
         id="path25" /><path
         style="font-weight:bold;font-size:408.6px;line-height:0.7;font-family:'HelveticaNeue 07472';-inkscape-font-specification:'HelveticaNeue 07472 Bold';letter-spacing:-15.3225px;word-spacing:0px;display:inline;fill:url(#linearGradient69);stroke-width:1.47152"
         d="m 81.460311,31.995354 h -1.821906 v 2.034742 h -1.103407 v 1.2471 h 1.103407 v 4.003847 c 0,1.352118 0.975105,1.614666 2.091343,1.614666 0.359249,0 0.756989,-0.01313 1.064917,-0.06564 v -1.457138 c -0.192455,0.03938 -0.37208,0.05251 -0.564535,0.05251 -0.615855,0 -0.769819,-0.157529 -0.769819,-0.787642 v -3.360606 h 1.334354 v -1.2471 h -1.334354 z"
         id="path24" /><path
         style="font-weight:bold;font-size:408.6px;line-height:0.7;font-family:'HelveticaNeue 07472';-inkscape-font-specification:'HelveticaNeue 07472 Bold';letter-spacing:-15.3225px;word-spacing:0px;display:inline;fill:url(#linearGradient70);stroke-width:1.47152"
         d="m 73.011552,33.189945 h 1.385675 l 0.82114,-1.063317 0.79548,1.063317 h 1.501148 L 76.10366,31.325859 h -1.667942 z"
         id="path22" /><path
         style="font-weight:bold;font-size:408.6px;line-height:0.7;font-family:'HelveticaNeue 07472';-inkscape-font-specification:'HelveticaNeue 07472 Bold';letter-spacing:-15.3225px;word-spacing:0px;display:inline;fill:url(#linearGradient71);stroke-width:1.47152"
         d="m 78.554251,37.876415 c 0.128303,-2.087252 -0.962274,-4.030102 -3.220411,-4.030102 -2.01436,0 -3.387205,1.549029 -3.387205,3.583771 0,2.100379 1.295863,3.570644 3.387205,3.570644 1.501148,0 2.591725,-0.682623 3.104938,-2.284162 h -1.60379 c -0.115473,0.420076 -0.705668,0.879534 -1.436996,0.879534 -1.013596,0 -1.57813,-0.538222 -1.629451,-1.719685 z m -4.78571,-1.181464 c 0.02566,-0.525094 0.359249,-1.44401 1.513978,-1.44401 0.885292,0 1.283032,0.49884 1.449826,1.44401 z"
         id="path21" /><path
         style="font-weight:bold;font-size:408.6px;line-height:0.7;font-family:'HelveticaNeue 07472';-inkscape-font-specification:'HelveticaNeue 07472 Bold';letter-spacing:-15.3225px;word-spacing:0px;display:inline;fill:url(#linearGradient34);stroke-width:1.47152"
         d="m 65.332599,40.816945 h 2.01436 v -3.872574 h 3.836266 v -1.601538 h -3.836266 v -2.166016 h 4.426461 v -1.732812 h -6.440821 z"
         id="text22" /><g
         id="g1"
         transform="matrix(0.03101899,0,0,0.03118522,44.748472,28.689076)"
         style="display:inline;fill:url(#linearGradient760)"><path
           style="font-weight:bold;font-size:109.433px;line-height:0.9;font-family:'HelveticaNeue 05472';-inkscape-font-specification:'HelveticaNeue 05472 Bold';letter-spacing:-4.10374px;word-spacing:0px;fill:url(#linearGradient3);stroke-width:12.4081"
           d="m 723.12842,452.94978 c -0.65659,-17.18099 -12.80366,-24.73186 -28.78087,-24.73186 -14.22629,0 -28.34315,7.00371 -28.34315,22.87149 0,14.33573 12.58479,17.94702 25.06016,20.68284 12.47536,2.73583 24.95072,4.59619 24.95072,15.32062 0,11.2716 -10.39614,14.22629 -19.80737,14.22629 -11.81877,0 -22.76207,-5.69051 -22.76207,-18.82247 h -9.84897 c 0,19.04134 14.77346,27.57711 32.28274,27.57711 14.22629,0 30.5318,-6.67541 30.5318,-23.30923 0,-15.32062 -12.47536,-19.69794 -24.95072,-22.5432 -12.58479,-2.84525 -25.06016,-4.26788 -25.06016,-13.89799 0,-10.17727 8.75464,-13.35082 17.50928,-13.35082 10.72444,0 18.16588,4.81505 19.36964,15.97722 z m 7.38681,16.19608 c 0,21.23 12.58479,40.92794 37.42608,40.92794 24.84129,0 37.42609,-19.69794 37.42609,-40.92794 0,-21.23 -12.5848,-40.92794 -37.42609,-40.92794 -24.84129,0 -37.42608,19.69794 -37.42608,40.92794 z m 10.39613,0 c 0,-15.75835 7.98861,-32.1733 27.02995,-32.1733 19.04134,0 27.02995,16.41495 27.02995,32.1733 0,15.75835 -7.98861,32.1733 -27.02995,32.1733 -19.04134,0 -27.02995,-16.41495 -27.02995,-32.1733 z m 73.26541,39.06758 h 9.84897 v -65.0032 h 0.21887 l 24.40356,65.0032 h 8.86407 l 24.40356,-65.0032 h 0.21887 v 65.0032 h 9.84897 v -78.13516 h -14.22629 l -24.73186,65.6598 -24.62243,-65.6598 h -14.22629 z m 91.21244,0 h 9.84897 v -65.0032 h 0.21886 l 24.40356,65.0032 h 8.86407 l 24.40356,-65.0032 h 0.21887 v 65.0032 h 9.84897 v -78.13516 h -14.22629 l -24.73186,65.6598 -24.62242,-65.6598 h -14.22629 z m 90.99358,0 h 54.27881 v -8.75464 h -43.8827 v -27.02995 h 40.5997 v -8.75464 h -40.5997 v -24.84129 h 43.5544 v -8.75464 h -53.95051 z m 73.15601,-42.1317 v -27.24882 h 25.8261 c 9.7396,0 13.898,5.69051 13.898,13.35082 0,11.38104 -8.3169,13.898 -18.0564,13.898 z m -10.3962,42.1317 h 10.3962 v -33.37706 h 25.3884 c 10.0678,0 11.9282,6.45654 13.0225,14.11685 1.5321,7.66031 -0.1094,16.08665 2.8453,19.26021 h 11.5999 c -4.3773,-5.36222 -3.9396,-13.89799 -4.5962,-21.5583 -0.766,-7.66031 -2.6264,-14.33572 -11.7093,-16.08665 v -0.21887 c 9.4112,-2.62639 13.5697,-10.39613 13.5697,-19.80737 0,-12.47536 -9.083,-20.46397 -23.747,-20.46397 h -36.7695 z m 70.8578,0 h 10.3962 v -35.78459 h 35.894 v -8.75464 h -35.894 v -24.84129 h 40.9279 v -8.75464 h -51.3241 z m 58.7107,0 h 54.2788 v -8.75464 h -43.8826 v -27.02995 h 40.5996 v -8.75464 h -40.5996 v -24.84129 h 43.5543 v -8.75464 h -53.9505 z m 117.8047,-55.26366 c -0.6566,-17.18099 -12.8036,-24.73186 -28.7809,-24.73186 -14.2263,0 -28.3431,7.00371 -28.3431,22.87149 0,14.33573 12.5848,17.94702 25.0601,20.68284 12.4754,2.73583 24.9508,4.59619 24.9508,15.32062 0,11.2716 -10.3962,14.22629 -19.8074,14.22629 -11.8188,0 -22.7621,-5.69051 -22.7621,-18.82247 h -9.8489 c 0,19.04134 14.7734,27.57711 32.2827,27.57711 14.2263,0 30.5318,-6.67541 30.5318,-23.30923 0,-15.32062 -12.4754,-19.69794 -24.9507,-22.5432 -12.5848,-2.84525 -25.0602,-4.26788 -25.0602,-13.89799 0,-10.17727 8.7547,-13.35082 17.5093,-13.35082 10.7244,0 18.1659,4.81505 19.3696,15.97722 z m 29.4923,55.26366 h 10.3961 v -69.38052 h 26.045 v -8.75464 h -62.4862 v 8.75464 h 26.0451 z m 68.2232,-30.77803 q 0,-9.77844 6.893,-16.67143 6.893,-6.893 16.6715,-6.893 9.725,0 16.618,6.893 6.893,6.89299 6.893,16.67143 0,9.725 -6.893,16.618 -6.893,6.89299 -16.618,6.89299 -9.7785,0 -16.6715,-6.89299 -6.893,-6.893 -6.893,-16.618 z m 87.3908,30.77803 h 10.3961 v -27.35825 l 13.0225,-12.14706 28.2338,39.50531 h 13.1319 l -34.2525,-46.61846 32.9393,-31.5167 h -13.4602 l -39.6148,38.95815 v -38.95815 h -10.3961 z m 64.5107,-39.06758 c 0,21.23 12.5848,40.92794 37.4261,40.92794 24.8413,0 37.4261,-19.69794 37.4261,-40.92794 0,-21.23 -12.5848,-40.92794 -37.4261,-40.92794 -24.8413,0 -37.4261,19.69794 -37.4261,40.92794 z m 10.3962,0 c 0,-15.75835 7.9886,-32.1733 27.0299,-32.1733 19.0413,0 27.03,16.41495 27.03,32.1733 0,15.75835 -7.9887,32.1733 -27.03,32.1733 -19.0413,0 -27.0299,-16.41495 -27.0299,-32.1733 z m 72.9371,39.06758 h 9.8489 v -62.70511 h 0.2189 l 40.8185,62.70511 h 11.3811 v -78.13516 h -9.849 v 63.36171 h -0.2189 l -41.1468,-63.36171 h -11.0527 z m 68.8881,0 h 62.1579 v -8.75464 h -49.792 l 48.4788,-60.62588 v -8.75464 h -57.124 v 8.75464 h 44.8675 l -48.5882,60.62588 z m 68.888,0 h 54.2788 v -8.75464 h -43.8827 v -27.02995 h 40.5997 v -8.75464 h -40.5997 v -24.84129 h 43.5544 v -8.75464 h -53.9505 z m 73.156,-42.1317 v -27.24882 h 25.8262 c 9.7395,0 13.898,5.69051 13.898,13.35082 0,11.38104 -8.3169,13.898 -18.0564,13.898 z m -10.3961,42.1317 h 10.3961 v -33.37706 h 25.3885 c 10.0678,0 11.9282,6.45654 13.0225,14.11685 1.5321,7.66031 -0.1094,16.08665 2.8453,19.26021 h 11.5999 c -4.3774,-5.36222 -3.9396,-13.89799 -4.5962,-21.5583 -0.7661,-7.66031 -2.6264,-14.33572 -11.7094,-16.08665 v -0.21887 c 9.4113,-2.62639 13.5697,-10.39613 13.5697,-19.80737 0,-12.47536 -9.0829,-20.46397 -23.7469,-20.46397 h -36.7695 z m 86.6162,0 h 10.3961 v -69.38052 h 26.0451 v -8.75464 h -62.4863 v 8.75464 h 26.0451 z m 40.9825,0 h 54.2788 v -8.75464 h -43.8826 v -27.02995 h 40.5996 v -8.75464 h -40.5996 v -24.84129 h 43.5543 v -8.75464 h -53.9505 z m 90.0006,-30.77803 q 0,-9.77844 6.893,-16.67143 6.893,-6.893 16.6714,-6.893 9.725,0 16.618,6.893 6.893,6.89299 6.893,16.67143 0,9.725 -6.893,16.618 -6.893,6.89299 -16.618,6.89299 -9.7784,0 -16.6714,-6.89299 -6.893,-6.893 -6.893,-16.618 z m 105.1189,30.77803 h 10.3962 v -69.38052 h 26.045 v -8.75464 h -62.4862 v 8.75464 h 26.045 z m 40.9826,0 h 10.3961 v -35.78459 h 41.1468 v 35.78459 h 10.3962 v -78.13516 h -10.3962 v 33.59593 h -41.1468 v -33.59593 h -10.3961 z m 74.9068,0 h 54.2788 v -8.75464 h -43.8826 v -27.02995 h 40.5996 v -8.75464 h -40.5996 v -24.84129 h 43.5543 v -8.75464 h -53.9505 z m 53.4581,0 h 10.7245 l 8.7546,-23.52809 h 33.0488 l 8.5357,23.52809 h 11.4905 l -30.5318,-78.13516 h -11.4905 z m 36.0035,-68.72392 h 0.2189 l 13.0225,36.44119 h -26.4828 z m 47.7677,68.72392 h 10.3961 v -69.38052 h 26.0451 v -8.75464 h -62.4863 v 8.75464 h 26.0451 z m 40.9825,0 h 54.2788 v -8.75464 h -43.8826 v -27.02995 h 40.5996 v -8.75464 h -40.5996 v -24.84129 h 43.5543 v -8.75464 h -53.9505 z m 73.1561,-42.1317 v -27.24882 h 25.8262 c 9.7395,0 13.8979,5.69051 13.8979,13.35082 0,11.38104 -8.3169,13.898 -18.0564,13.898 z m -10.3962,42.1317 h 10.3962 v -33.37706 h 25.3884 c 10.0679,0 11.9282,6.45654 13.0225,14.11685 1.5321,7.66031 -0.1094,16.08665 2.8453,19.26021 h 11.5999 c -4.3773,-5.36222 -3.9396,-13.89799 -4.5962,-21.5583 -0.766,-7.66031 -2.6264,-14.33572 -11.7093,-16.08665 v -0.21887 c 9.4112,-2.62639 13.5697,-10.39613 13.5697,-19.80737 0,-12.47536 -9.083,-20.46397 -23.747,-20.46397 h -36.7695 z m 98.0985,-30.77803 q 0,-9.77844 6.893,-16.67143 6.893,-6.893 16.6714,-6.893 9.725,0 16.618,6.893 6.893,6.89299 6.893,16.67143 0,9.725 -6.893,16.618 -6.893,6.89299 -16.618,6.89299 -9.7784,0 -16.6714,-6.89299 -6.893,-6.893 -6.893,-16.618 z m 87.3908,30.77803 h 10.3961 v -27.35825 l 13.0225,-12.14706 28.2338,39.50531 h 13.1319 l -34.2525,-46.61846 32.9393,-31.5167 h -13.4602 l -39.6148,38.95815 v -38.95815 h -10.3961 z m 69.3257,0 h 10.3961 v -78.13516 h -10.3961 z m 23.6923,0 h 9.849 v -62.70511 h 0.2188 l 40.8185,62.70511 h 11.3811 v -78.13516 h -9.849 v 63.36171 h -0.2189 l -41.1468,-63.36171 h -11.0527 z m 75.0164,0 h 26.8111 c 26.045,0 37.5355,-14.77345 37.5355,-40.92794 0,-25.16959 -13.4602,-37.20722 -37.5355,-37.20722 h -26.8111 z m 10.3961,-69.38052 h 17.5093 c 19.1508,0 26.0451,11.2716 26.0451,29.87521 0,28.78088 -19.1508,30.75067 -26.2639,30.75067 h -17.2905 z m 62.5409,69.38052 h 54.2788 v -8.75464 h -43.8826 v -27.02995 h 40.5996 v -8.75464 h -40.5996 v -24.84129 h 43.5543 v -8.75464 h -53.9505 z m 73.1562,-42.1317 v -27.24882 h 25.8262 c 9.7395,0 13.8979,5.69051 13.8979,13.35082 0,11.38104 -8.3169,13.898 -18.0564,13.898 z m -10.3962,42.1317 h 10.3962 v -33.37706 h 25.3884 c 10.0679,0 11.9282,6.45654 13.0225,14.11685 1.5321,7.66031 -0.1094,16.08665 2.8453,19.26021 h 11.5999 c -4.3773,-5.36222 -3.9396,-13.89799 -4.5962,-21.5583 -0.766,-7.66031 -2.6264,-14.33572 -11.7093,-16.08665 v -0.21887 c 9.4112,-2.62639 13.5697,-10.39613 13.5697,-19.80737 0,-12.47536 -9.083,-20.46397 -23.747,-20.46397 h -36.7695 z m 70.8577,0 h 10.3961 V 476.259 h 23.8564 c 15.5395,0.10944 23.9659,-8.6452 23.9659,-23.09036 0,-14.44515 -8.4264,-23.09036 -23.9659,-23.09036 h -34.2525 z m 10.3961,-69.38052 h 20.3546 c 11.7093,0 17.0715,5.03392 17.0715,14.33572 0,9.30181 -5.3622,14.44516 -17.0715,14.33572 h -20.3546 z m 66.8091,27.24882 v -27.24882 h 25.8262 c 9.7395,0 13.898,5.69051 13.898,13.35082 0,11.38104 -8.3169,13.898 -18.0565,13.898 z m -10.3961,42.1317 h 10.3961 v -33.37706 h 25.3885 c 10.0678,0 11.9282,6.45654 13.0225,14.11685 1.5321,7.66031 -0.1094,16.08665 2.8453,19.26021 h 11.5999 c -4.3774,-5.36222 -3.9396,-13.89799 -4.5962,-21.5583 -0.7661,-7.66031 -2.6264,-14.33572 -11.7094,-16.08665 v -0.21887 c 9.4113,-2.62639 13.5697,-10.39613 13.5697,-19.80737 0,-12.47536 -9.0829,-20.46397 -23.7469,-20.46397 h -36.7695 z m 66.4803,-39.06758 c 0,21.23 12.5848,40.92794 37.4261,40.92794 24.8413,0 37.4261,-19.69794 37.4261,-40.92794 0,-21.23 -12.5848,-40.92794 -37.4261,-40.92794 -24.8413,0 -37.4261,19.69794 -37.4261,40.92794 z m 10.3962,0 c 0,-15.75835 7.9886,-32.1733 27.0299,-32.1733 19.0414,0 27.03,16.41495 27.03,32.1733 0,15.75835 -7.9886,32.1733 -27.03,32.1733 -19.0413,0 -27.0299,-16.41495 -27.0299,-32.1733 z m 134.2196,39.06758 h 6.566 v -41.14681 h -34.2525 v 8.75464 h 24.9507 c 0.6566,14.22629 -8.9735,25.49789 -25.0602,25.49789 -17.3998,0 -26.811,-14.88289 -26.811,-31.1884 0,-16.74325 7.8791,-33.1582 26.811,-33.1582 11.5999,0 21.1206,5.36221 23.1998,17.18098 h 10.3962 c -2.9547,-18.27531 -16.5244,-25.93562 -33.596,-25.93562 -24.7318,0 -37.2072,19.69794 -37.2072,42.46 0,20.35454 13.898,39.39588 37.2072,39.39588 9.1924,0 19.0414,-3.39242 25.0602,-11.5999 z m 28.1792,-42.1317 v -27.24882 h 25.8262 c 9.7395,0 13.8979,5.69051 13.8979,13.35082 0,11.38104 -8.3169,13.898 -18.0564,13.898 z m -10.3962,42.1317 h 10.3962 v -33.37706 h 25.3884 c 10.0679,0 11.9282,6.45654 13.0225,14.11685 1.5321,7.66031 -0.1094,16.08665 2.8453,19.26021 h 11.5999 c -4.3773,-5.36222 -3.9396,-13.89799 -4.5962,-21.5583 -0.766,-7.66031 -2.6264,-14.33572 -11.7093,-16.08665 v -0.21887 c 9.4112,-2.62639 13.5697,-10.39613 13.5697,-19.80737 0,-12.47536 -9.083,-20.46397 -23.747,-20.46397 h -36.7695 z m 61.5559,0 h 10.7244 l 8.7547,-23.52809 h 33.0487 l 8.5358,23.52809 h 11.4905 l -30.5318,-78.13516 h -11.4905 z m 36.0034,-68.72392 h 0.2189 l 13.0225,36.44119 h -26.4827 z m 40.3263,68.72392 h 9.849 v -65.0032 h 0.2189 l 24.4035,65.0032 h 8.8641 l 24.4036,-65.0032 h 0.2188 v 65.0032 h 9.849 v -78.13516 h -14.2263 l -24.7318,65.6598 -24.6225,-65.6598 h -14.2263 z m 91.2124,0 h 9.849 v -65.0032 h 0.2189 l 24.4035,65.0032 h 8.8641 l 24.4036,-65.0032 h 0.2188 v 65.0032 h 9.849 v -78.13516 h -14.2263 l -24.7318,65.6598 -24.6225,-65.6598 h -14.2263 z"
           id="text23-2"
           aria-label="SOMMERFEST ● KONZERTE ● THEATER ● KINDERPROGRAMM" /></g><g
         id="g793"
         transform="matrix(0.0057654,0,0,0.0057654,48.0139,25.180497)"
         style="display:inline"><g
           id="g132"
           transform="matrix(0.94007123,0,0,0.94007123,51.307443,92.171059)"><path
             id="rect24"
             style="display:inline;fill:url(#linearGradient713);fill-rule:evenodd;stroke-width:0.891948"
             d="m 1590.2324,1016.4297 c -252.5315,0.3971 -496.3609,92.3085 -686.31833,258.707 -189.9575,166.3985 -313.16813,396.0058 -346.80664,646.2871 141.7002,-106.8804 295.73272,-106.8804 462.09767,0 182.1621,-104.4085 359.5844,-111.6479 532.2812,-22.0195 v 987.2461 c 0,1.4817 10.0217,2.6738 22.4707,2.6738 h 29.9063 c 12.449,0 22.4707,-1.1921 22.4707,-2.6738 v -983.5645 c 191.2554,-93.5919 370.4843,-87.5372 537.666,18.3379 161.2989,-108.5192 314.8464,-108.5192 460.6426,0 -33.663,-250.383 -156.9697,-480.0667 -347.0606,-646.4707 -190.091,-166.4039 -434.0713,-258.2401 -686.707,-258.4804 z" /><path
             id="path5-4"
             style="fill:url(#linearGradient711);fill-opacity:1;stroke:none;stroke-width:3.77952"
             d="m 1590.875,1016.5194 v 904.9043 c 204.6066,-112.3949 395.6482,-112.3949 573.125,0 -9.9722,-384.1168 -230.1237,-731.7129 -573.125,-904.9043 z" /><path
             d="m 1019.2051,1921.4237 c 9.6866,-383.8017 229.2305,-731.3238 571.6699,-904.9121 v -0.039 l -0.6426,-0.043 c -252.5315,0.3971 -496.361,92.3082 -686.31844,258.7067 -189.9575,166.3985 -313.16802,396.0061 -346.80653,646.2874 141.7002,-106.8804 295.73276,-106.8804 462.09767,0 z"
             style="fill:url(#linearGradient712);fill-opacity:1;stroke:none;stroke-width:3.77952"
             id="path23" /><path
             id="rect26"
             style="fill:url(#linearGradient707);fill-opacity:1;fill-rule:evenodd;stroke:none"
             d="m 848.54688,1969.0664 c -2.09386,0 -3.78125,1.6855 -3.78125,3.7793 v 92.957 h -30.75195 a 29.842449,35.292637 0 0 0 -27.26953,-20.9785 29.842449,35.292637 0 0 0 -29.8418,35.293 29.842449,35.292637 0 0 0 29.8418,35.293 29.842449,35.292637 0 0 0 27.2539,-20.9766 h 30.76758 v 79.1895 h -30.75195 a 29.842449,35.292637 0 0 0 -27.26953,-20.9805 29.842449,35.292637 0 0 0 -29.8418,35.293 29.842449,35.292637 0 0 0 29.8418,35.2929 29.842449,35.292637 0 0 0 27.2539,-20.9765 h 30.76758 v 75.455 c 0,2.0939 1.68739,3.7793 3.78125,3.7793 h 29.24219 l -4.48047,278.6993 c -167.99196,4.8928 -233.39453,144.6913 -233.39453,216.0371 0,72.6214 50.11195,120.7223 46.08203,168.3301 -4.02992,47.6078 -117.22852,145.0484 -117.22852,251.5429 0,106.4945 57.44026,288.0996 373.46289,288.0996 316.02253,0 373.46483,-181.6051 373.46483,-288.0996 0,-106.4945 -113.1986,-203.9351 -117.2285,-251.5429 -4.0299,-47.6078 46.084,-95.7087 46.084,-168.3301 0,-71.8795 -66.3775,-213.2518 -237.1758,-216.1348 l -4.4805,-278.6016 h 29.2442 c 2.0938,0 3.7793,-1.6854 3.7793,-3.7793 v -75.455 h 30.7539 a 29.842449,35.292637 0 0 0 27.2695,20.9785 29.842449,35.292637 0 0 0 29.8418,-35.293 29.842449,35.292637 0 0 0 -29.8418,-35.293 29.842449,35.292637 0 0 0 -27.2539,20.9766 h -30.7695 v -79.1894 h 30.7539 a 29.842449,35.292637 0 0 0 27.2695,20.9785 29.842449,35.292637 0 0 0 29.8418,-35.293 29.842449,35.292637 0 0 0 -29.8418,-35.293 29.842449,35.292637 0 0 0 -27.2539,20.9766 h -30.7695 v -92.9551 c 0,-2.0938 -1.6855,-3.7793 -3.7793,-3.7793 z m 88.71289,840.1504 c 89.55953,0 162.76943,73.2119 162.76953,162.7715 0,89.5596 -73.2099,162.7695 -162.76953,162.7695 -89.55962,0 -162.76953,-73.2099 -162.76953,-162.7695 6e-5,-89.5596 73.20996,-162.7715 162.76953,-162.7715 z m 0,56.6934 c -58.92046,0 -106.07808,47.1576 -106.07812,106.0781 0,58.9205 47.15762,106.0762 106.07812,106.0762 58.92048,-10e-5 106.07613,-47.1557 106.07613,-106.0762 0,-58.9205 -47.15568,-106.0781 -106.07613,-106.0781 z" /><g
             id="g129"
             clip-path="url(#clipPath131-2)"
             style="display:inline;opacity:1"><g
               id="g128"
               style="display:inline"><path
                 id="path107"
                 style="fill:url(#linearGradient708);fill-opacity:1;fill-rule:evenodd;stroke-width:1.18602"
                 d="m 399.61679,2953.9796 c 69.24355,0 94.10488,-17.7967 133.41156,-42.4443 4.91338,-3.0809 10.05197,-6.2679 15.4553,-9.4881 5.40333,-3.2201 11.0715,-6.4733 17.04216,-9.6827 22.97639,-12.3506 51.81358,-23.1061 85.96593,-29.9219 0.1115,-0.029 0.1847,-0.09 0.29654,-0.1203 0.0991,-0.026 0.27332,-0.015 0.37283,-0.042 5.56602,-1.0968 9.9682,-3.0017 15.89792,-3.8199 4.74,-0.654 9.59867,-1.213 14.58206,-1.6677 4.98327,-0.4545 10.0917,-0.8057 15.32804,-1.0424 5.23546,-0.2366 10.59872,-0.359 16.09683,-0.3591 v 0 c 87.98286,0 141.73345,31.4961 181.04013,56.1438 9.82665,6.162 18.75067,11.8936 27.69086,17.0282 13.02426,7.4805 26.25854,13.5444 42.1941,17.9526 0.9887,0.2017 1.80988,0.5133 2.80992,0.7065 16.32612,4.2233 35.40263,6.7571 60.71893,6.7571 69.2435,0 94.1047,-17.7968 133.4114,-42.4444 4.9134,-3.0809 10.052,-6.268 15.4554,-9.4882 21.6134,-12.8803 47.4576,-26.2756 80.0034,-35.3906 12.2046,-3.4182 25.3515,-6.2339 39.5719,-8.1958 4.7399,-0.654 9.5987,-1.213 14.582,-1.6677 4.9833,-0.4545 10.0917,-0.8057 15.328,-1.0424 5.2355,-0.2366 10.599,-0.359 16.097,-0.3591 v 0 c 87.983,0 141.7335,31.4961 181.04,56.1438 9.8266,6.162 18.7507,11.8936 27.691,17.0282 4.4701,2.5675 8.944,4.9857 13.5373,7.2321 22.9659,11.2319 48.9083,18.1841 92.1855,18.1841 h 0.081 c 12.1634,0 22.2139,-1.8293 33.1206,-2.9349 44.0617,-5.1733 68.4023,-19.562 100.2098,-39.5073 4.9134,-3.0808 10.0521,-6.2679 15.4554,-9.4881 16.2101,-9.6603 34.7993,-19.6113 56.8111,-27.8274 7.3373,-2.7389 15.0558,-5.2846 23.1923,-7.5633 4.0681,-1.1394 8.2403,-2.2121 12.5227,-3.2083 6.8555,-1.5949 14.7779,-2.3854 22.2148,-3.5511 2.1434,-0.4237 4.057,-0.9737 6.3124,-1.3388 2.2526,-0.365 4.9176,-0.532 7.2922,-0.8364 2.044,-0.2264 3.7248,-0.7385 5.812,-0.929 1.1893,-0.1078 2.5468,-0.069 3.7504,-0.1668 1.2848,-0.1114 2.3524,-0.3257 3.6738,-0.4215 7.3834,-0.5348 15.3452,-0.8131 24.0008,-0.8131 v 0 c 87.9829,0 141.7358,31.496 181.0424,56.1438 9.8266,6.162 18.7482,11.8936 27.6885,17.0283 8.9403,5.1348 17.8986,9.6702 27.7906,13.4355 4.9461,1.8826 10.1257,3.5738 15.6545,5.0499 5.5287,1.4761 11.4053,2.7374 17.7465,3.7642 5.8152,0.9418 12.1439,1.6296 18.828,2.159 1.3397,0.098 2.6874,0.1896 4.0446,0.2733 6.7657,0.4373 13.8479,0.7343 21.6588,0.7343 h 0.081 c 12.1632,0 22.2139,-1.8292 33.1207,-2.935 44.0618,-5.1733 68.4022,-19.5619 100.2097,-39.5071 14.7401,-9.2429 31.5121,-19.4496 51.3581,-28.5966 13.2305,-6.098 27.8277,-11.7248 44.1006,-16.2823 6.8627,-1.9221 15.3563,-2.6639 22.838,-4.1604 0.1704,-0.046 0.292,-0.1281 0.4632,-0.1737 0.3388,-0.09 0.9304,-0.052 1.2718,-0.1415 9.7541,-1.8914 18.6926,-4.3945 29.581,-5.3879 9.9654,-0.9093 20.4266,-1.4013 31.4227,-1.4015 v 0 0 c 87.9828,0 141.7359,31.4961 181.0424,56.1439 19.6532,12.3238 35.6947,22.9331 55.4791,30.4638 4.946,1.8826 10.1259,3.5736 15.6546,5.0498 3.5723,0.9537 7.5722,1.6631 11.4664,2.4323 15.6874,2.4556 31.9882,4.4647 50.5358,4.4799 0.1067,10e-5 0.1685,0.019 0.2756,0.019 69.2436,0 94.1048,-17.7966 133.4116,-42.4442 14.74,-9.243 31.512,-19.4494 51.3581,-28.5965 13.2305,-6.098 27.8277,-11.7249 44.1005,-16.2824 4.0683,-1.1394 8.2403,-2.2122 12.5227,-3.2083 4.2827,-0.9964 8.6743,-1.9152 13.1807,-2.7497 4.7186,-0.8737 9.9197,-1.3698 14.8948,-2.0454 0.1607,-0.026 0.2904,-0.068 0.4516,-0.095 0.1452,-0.025 0.364,-0.014 0.5097,-0.037 4.2211,-0.5597 8.1825,-1.3256 12.5945,-1.7282 4.9834,-0.4544 10.0917,-0.8055 15.3281,-1.0422 5.2355,-0.2367 10.5989,-0.3591 16.0968,-0.3593 v 0 c 87.9831,0 141.7358,31.4961 181.0426,56.1439 9.8266,6.1619 18.7504,11.8936 27.6907,17.0282 9.8715,5.6697 20.8302,9.6286 31.9787,13.6069 12.5362,3.1328 22.9398,7.6446 37.5219,9.2334 10.9047,1.3801 22.14,2.5758 36.2201,2.5758 69.2434,0 94.1048,-17.7967 133.4113,-42.4443 30.1511,-18.9066 69.7935,-41.0617 125.8738,-50.7209 3.4915,-0.7797 6.8347,-1.641 10.6349,-2.2563 6.3412,-1.0268 13.1449,-1.8187 20.5284,-2.3535 1.8328,-0.1329 4.052,-0.1013 5.9578,-0.2015 0.7065,-0.037 1.2347,-0.2203 1.9459,-0.2524 5.234,-0.2366 10.596,-0.3591 16.0924,-0.3593 v 0 0 c 87.983,0 87.9477,-89.641 -0.035,-89.641 -5.499,0 -10.8633,0.1224 -16.0995,0.3591 -78.5447,3.5506 -128.0909,32.6774 -164.9407,55.7848 -39.3067,24.6478 -64.168,42.4466 -133.4114,42.4466 -17.3109,0 -31.8493,-1.1127 -44.5316,-3.1666 -6.3412,-1.0268 -12.2176,-2.288 -17.7463,-3.7641 -16.5862,-4.4285 -30.0324,-10.7832 -43.4428,-18.4853 -8.9402,-5.1347 -17.8641,-10.8687 -27.6908,-17.0306 -39.3066,-24.648 -93.0595,-56.1439 -181.0424,-56.1439 -5.4989,0 -10.863,0.1224 -16.0993,0.3591 -5.2363,0.2367 -10.3446,0.5878 -15.3281,1.0422 -9.9667,0.9095 -19.4375,2.2367 -28.4505,3.9057 -4.5064,0.8345 -8.898,1.7533 -13.1807,2.7498 -4.2825,0.9961 -8.4544,2.0687 -12.5227,3.2081 -16.2729,4.5575 -30.8702,10.1844 -44.1008,16.2824 -19.8458,9.1471 -36.6179,19.3537 -51.358,28.5966 -39.3065,24.6478 -64.1679,42.4466 -133.4115,42.4466 -17.3108,0 -31.849,-1.1127 -44.5314,-3.1666 -6.3411,-1.0268 -12.2176,-2.288 -17.7464,-3.7641 -5.5286,-1.4762 -10.7085,-3.1672 -15.6547,-5.0499 -19.7842,-7.5307 -35.8257,-18.1419 -55.4789,-30.466 -39.3066,-24.648 -93.0596,-56.1439 -181.0424,-56.1439 -10.9978,0 -21.4605,0.4921 -31.4271,1.4013 -19.9337,1.8189 -37.8815,5.306 -54.1543,9.8636 -16.273,4.5575 -30.8701,10.1844 -44.1006,16.2824 -19.8459,9.1471 -36.618,19.3537 -51.358,28.5966 -34.3933,21.567 -57.7268,37.8897 -109.4107,41.6336 -7.3834,0.5349 -15.3453,0.813 -24.0008,0.813 -8.6554,0 -16.6174,-0.2781 -24.0008,-0.813 -7.3835,-0.5348 -14.1894,-1.3266 -20.5307,-2.3536 -6.3411,-1.0268 -12.2178,-2.288 -17.7464,-3.7641 -5.5288,-1.4762 -10.7084,-3.1672 -15.6545,-5.0499 -9.892,-3.7655 -18.8503,-8.3007 -27.7906,-13.4354 -8.9402,-5.1347 -17.8619,-10.8687 -27.6885,-17.0306 -39.3067,-24.648 -93.0595,-56.1439 -181.0424,-56.1439 -10.9979,0 -21.4605,0.4921 -31.4274,1.4013 -14.95,1.3643 -28.7837,3.6665 -41.6312,6.6555 -4.2824,0.9961 -8.4545,2.0687 -12.5227,3.2081 -8.1365,2.2787 -15.8552,4.8246 -23.1923,7.5633 -22.0119,8.2164 -40.601,18.1671 -56.8111,27.8275 -5.4033,3.2202 -10.5421,6.4072 -15.4555,9.4882 -34.3932,21.567 -57.7269,37.8897 -109.4107,41.6336 -7.3834,0.5349 -15.3452,0.813 -24.0007,0.813 -43.2772,0 -69.2197,-6.952 -92.1855,-18.1841 -4.5933,-2.2463 -9.0672,-4.6645 -13.5374,-7.2319 -8.9402,-5.1347 -17.8643,-10.8687 -27.6909,-17.0306 -39.3066,-24.648 -93.057,-56.1439 -181.0401,-56.1439 -5.4989,0 -10.863,0.1224 -16.0994,0.3591 -5.2363,0.2367 -10.3446,0.5878 -15.328,1.0422 -4.9833,0.4549 -9.8419,1.0141 -14.582,1.6681 -14.2202,1.9617 -27.3673,4.7772 -39.5718,8.1955 -32.5458,9.1151 -58.3901,22.5104 -80.0034,35.3908 -5.4035,3.2202 -10.5421,6.4072 -15.4554,9.4882 -39.3066,24.6478 -64.168,42.4466 -133.4115,42.4466 -25.9663,0 -45.69169,-2.5022 -62.27781,-6.9307 -16.58623,-4.4285 -30.03472,-10.7832 -43.44512,-18.4853 -8.94009,-5.1347 -17.86421,-10.8687 -27.69086,-17.0306 -39.30668,-24.648 -93.05727,-56.1439 -181.04003,-56.1439 -5.49898,0 -10.86289,0.1224 -16.09935,0.3591 -5.23623,0.2367 -10.34455,0.5878 -15.32804,1.0422 -4.98328,0.4549 -9.84195,1.0141 -14.58206,1.6681 -42.66083,5.8855 -75.66497,19.461 -102.53322,33.9035 -5.97066,3.2094 -11.63873,6.4626 -17.04205,9.6828 -5.40344,3.2202 -10.54192,6.4072 -15.4553,9.4882 -39.30657,24.6478 -64.16812,42.4466 -133.41156,42.4466 -17.31085,0 -17.08498,89.6342 0.0575,89.6342 z" /><path
                 id="use125"
                 style="fill:url(#linearGradient709);fill-opacity:1;fill-rule:evenodd;stroke-width:1.18602"
                 d="m 399.61679,3182.2088 c 69.24355,0 94.10488,-17.7967 133.41156,-42.4443 4.91338,-3.0809 10.05197,-6.2679 15.4553,-9.4881 5.40333,-3.2201 11.0715,-6.4733 17.04216,-9.6827 22.97639,-12.3506 51.81358,-23.1061 85.96593,-29.9219 0.1115,-0.029 0.1847,-0.09 0.29654,-0.1203 0.0991,-0.026 0.27332,-0.015 0.37283,-0.042 5.56602,-1.0968 9.9682,-3.0017 15.89792,-3.8199 4.74,-0.654 9.59867,-1.213 14.58206,-1.6677 4.98327,-0.4545 10.0917,-0.8057 15.32804,-1.0424 5.23546,-0.2366 10.59872,-0.359 16.09683,-0.3591 v 0 c 87.98286,0 141.73345,31.4961 181.04013,56.1438 9.82665,6.162 18.75067,11.8936 27.69086,17.0282 13.02426,7.4805 26.25854,13.5444 42.1941,17.9526 0.9887,0.2017 1.80988,0.5133 2.80992,0.7065 16.32612,4.2233 35.40263,6.7571 60.71893,6.7571 69.2435,0 94.1047,-17.7968 133.4114,-42.4444 4.9134,-3.0809 10.052,-6.268 15.4554,-9.4882 21.6134,-12.8803 47.4576,-26.2756 80.0034,-35.3906 12.2046,-3.4182 25.3515,-6.2339 39.5719,-8.1958 4.7399,-0.654 9.5987,-1.213 14.582,-1.6677 4.9833,-0.4545 10.0917,-0.8057 15.328,-1.0424 5.2355,-0.2366 10.599,-0.359 16.097,-0.3591 v 0 c 87.983,0 141.7335,31.4961 181.04,56.1438 9.8266,6.162 18.7507,11.8936 27.691,17.0282 4.4701,2.5675 8.944,4.9857 13.5373,7.2321 22.9659,11.2319 48.9083,18.1841 92.1855,18.1841 h 0.081 c 12.1634,0 22.2139,-1.8293 33.1206,-2.9349 44.0617,-5.1733 68.4023,-19.562 100.2098,-39.5073 4.9134,-3.0808 10.0521,-6.2679 15.4554,-9.4881 16.2101,-9.6603 34.7993,-19.6113 56.8111,-27.8274 7.3373,-2.7389 15.0558,-5.2846 23.1923,-7.5633 4.0681,-1.1394 8.2403,-2.2121 12.5227,-3.2083 6.8555,-1.5949 14.7779,-2.3854 22.2148,-3.5511 2.1434,-0.4237 4.057,-0.9737 6.3124,-1.3388 2.2526,-0.365 4.9176,-0.532 7.2922,-0.8364 2.044,-0.2264 3.7248,-0.7385 5.812,-0.929 1.1893,-0.1078 2.5468,-0.069 3.7504,-0.1668 1.2848,-0.1114 2.3524,-0.3257 3.6738,-0.4215 7.3834,-0.5348 15.3452,-0.8131 24.0008,-0.8131 v 0 c 87.9829,0 141.7358,31.496 181.0424,56.1438 9.8266,6.162 18.7482,11.8936 27.6885,17.0283 8.9403,5.1348 17.8986,9.6702 27.7906,13.4355 4.9461,1.8826 10.1257,3.5738 15.6545,5.0499 5.5287,1.4761 11.4053,2.7374 17.7465,3.7642 5.8152,0.9418 12.1439,1.6296 18.828,2.159 1.3397,0.098 2.6874,0.1896 4.0446,0.2733 6.7657,0.4373 13.8479,0.7343 21.6588,0.7343 h 0.081 c 12.1632,0 22.2139,-1.8292 33.1207,-2.935 44.0618,-5.1733 68.4022,-19.5619 100.2097,-39.5071 14.7401,-9.2429 31.5121,-19.4496 51.3581,-28.5966 13.2305,-6.098 27.8277,-11.7248 44.1006,-16.2823 6.8627,-1.9221 15.3563,-2.6639 22.838,-4.1604 0.1704,-0.046 0.292,-0.1281 0.4632,-0.1737 0.3388,-0.09 0.9304,-0.052 1.2718,-0.1415 9.7541,-1.8914 18.6926,-4.3945 29.581,-5.3879 9.9654,-0.9093 20.4266,-1.4013 31.4227,-1.4015 v 0 0 c 87.9828,0 141.7359,31.4961 181.0424,56.1439 19.6532,12.3238 35.6947,22.9331 55.4791,30.4638 4.946,1.8826 10.1259,3.5736 15.6546,5.0498 3.5723,0.9537 7.5722,1.6631 11.4664,2.4323 15.6874,2.4556 31.9882,4.4647 50.5358,4.4799 0.1067,1e-4 0.1685,0.019 0.2756,0.019 69.2436,0 94.1048,-17.7966 133.4116,-42.4442 14.74,-9.243 31.512,-19.4494 51.3581,-28.5965 13.2305,-6.098 27.8277,-11.7249 44.1005,-16.2824 4.0683,-1.1394 8.2403,-2.2122 12.5227,-3.2083 4.2827,-0.9964 8.6743,-1.9152 13.1807,-2.7497 4.7186,-0.8737 9.9197,-1.3698 14.8948,-2.0454 0.1607,-0.026 0.2904,-0.068 0.4516,-0.095 0.1452,-0.025 0.364,-0.014 0.5097,-0.037 4.2211,-0.5597 8.1825,-1.3256 12.5945,-1.7282 4.9834,-0.4544 10.0917,-0.8055 15.3281,-1.0422 5.2355,-0.2367 10.5989,-0.3591 16.0968,-0.3593 v 0 c 87.9831,0 141.7358,31.4961 181.0426,56.1439 9.8266,6.1619 18.7504,11.8936 27.6907,17.0282 9.8715,5.6697 20.8302,9.6286 31.9787,13.6069 12.5362,3.1328 22.9398,7.6446 37.5219,9.2334 10.9047,1.3801 22.14,2.5758 36.2201,2.5758 69.2434,0 94.1048,-17.7967 133.4113,-42.4443 30.1511,-18.9066 69.7935,-41.0617 125.8738,-50.7209 3.4915,-0.7797 6.8347,-1.641 10.6349,-2.2563 6.3412,-1.0268 13.1449,-1.8187 20.5284,-2.3535 1.8328,-0.1329 4.052,-0.1013 5.9578,-0.2015 0.7065,-0.037 1.2347,-0.2203 1.9459,-0.2524 5.234,-0.2366 10.596,-0.3591 16.0924,-0.3593 v 0 0 c 87.983,0 87.9477,-89.641 -0.035,-89.641 -5.499,0 -10.8633,0.1224 -16.0995,0.3591 -78.5447,3.5506 -128.0909,32.6774 -164.9407,55.7848 -39.3067,24.6478 -64.168,42.4466 -133.4114,42.4466 -17.3109,0 -31.8493,-1.1127 -44.5316,-3.1666 -6.3412,-1.0268 -12.2176,-2.288 -17.7463,-3.7641 -16.5862,-4.4285 -30.0324,-10.7832 -43.4428,-18.4853 -8.9402,-5.1347 -17.8641,-10.8687 -27.6908,-17.0306 -39.3066,-24.648 -93.0595,-56.1439 -181.0424,-56.1439 -5.4989,0 -10.863,0.1224 -16.0993,0.3591 -5.2363,0.2367 -10.3446,0.5878 -15.3281,1.0422 -9.9667,0.9095 -19.4375,2.2367 -28.4505,3.9057 -4.5064,0.8345 -8.898,1.7533 -13.1807,2.7498 -4.2825,0.9961 -8.4544,2.0687 -12.5227,3.2081 -16.2729,4.5575 -30.8702,10.1844 -44.1008,16.2824 -19.8458,9.1471 -36.6179,19.3537 -51.358,28.5966 -39.3065,24.6478 -64.1679,42.4466 -133.4115,42.4466 -17.3108,0 -31.849,-1.1127 -44.5314,-3.1666 -6.3411,-1.0268 -12.2176,-2.288 -17.7464,-3.7641 -5.5286,-1.4762 -10.7085,-3.1672 -15.6547,-5.0499 -19.7842,-7.5307 -35.8257,-18.1419 -55.4789,-30.466 -39.3066,-24.648 -93.0596,-56.1439 -181.0424,-56.1439 -10.9978,0 -21.4605,0.4921 -31.4271,1.4013 -19.9337,1.8189 -37.8815,5.306 -54.1543,9.8636 -16.273,4.5575 -30.8701,10.1844 -44.1006,16.2824 -19.8459,9.1471 -36.618,19.3537 -51.358,28.5966 -34.3933,21.567 -57.7268,37.8897 -109.4107,41.6336 -7.3834,0.5349 -15.3453,0.813 -24.0008,0.813 -8.6554,0 -16.6174,-0.2781 -24.0008,-0.813 -7.3835,-0.5348 -14.1894,-1.3266 -20.5307,-2.3536 -6.3411,-1.0268 -12.2178,-2.288 -17.7464,-3.7641 -5.5288,-1.4762 -10.7084,-3.1672 -15.6545,-5.0499 -9.892,-3.7655 -18.8503,-8.3007 -27.7906,-13.4354 -8.9402,-5.1347 -17.8619,-10.8687 -27.6885,-17.0306 -39.3067,-24.648 -93.0595,-56.1439 -181.0424,-56.1439 -10.9979,0 -21.4605,0.4921 -31.4274,1.4013 -14.95,1.3643 -28.7837,3.6665 -41.6312,6.6555 -4.2824,0.9961 -8.4545,2.0687 -12.5227,3.2081 -8.1365,2.2787 -15.8552,4.8246 -23.1923,7.5633 -22.0119,8.2164 -40.601,18.1671 -56.8111,27.8275 -5.4033,3.2202 -10.5421,6.4072 -15.4555,9.4882 -34.3932,21.567 -57.7269,37.8897 -109.4107,41.6336 -7.3834,0.5349 -15.3452,0.813 -24.0007,0.813 -43.2772,0 -69.2197,-6.952 -92.1855,-18.1841 -4.5933,-2.2463 -9.0672,-4.6645 -13.5374,-7.2319 -8.9402,-5.1347 -17.8643,-10.8687 -27.6909,-17.0306 -39.3066,-24.648 -93.057,-56.1439 -181.0401,-56.1439 -5.4989,0 -10.863,0.1224 -16.0994,0.3591 -5.2363,0.2367 -10.3446,0.5878 -15.328,1.0422 -4.9833,0.4549 -9.8419,1.0141 -14.582,1.6681 -14.2202,1.9617 -27.3673,4.7772 -39.5718,8.1955 -32.5458,9.1151 -58.3901,22.5104 -80.0034,35.3908 -5.4035,3.2202 -10.5421,6.4072 -15.4554,9.4882 -39.3066,24.6478 -64.168,42.4466 -133.4115,42.4466 -25.9663,0 -45.69169,-2.5022 -62.27781,-6.9307 -16.58623,-4.4285 -30.03472,-10.7832 -43.44512,-18.4853 -8.94009,-5.1347 -17.86421,-10.8687 -27.69086,-17.0306 -39.30668,-24.648 -93.05727,-56.1439 -181.04003,-56.1439 -5.49898,0 -10.86289,0.1224 -16.09935,0.3591 -5.23623,0.2367 -10.34455,0.5878 -15.32804,1.0422 -4.98328,0.4549 -9.84195,1.0141 -14.58206,1.6681 -42.66083,5.8855 -75.66497,19.461 -102.53322,33.9035 -5.97066,3.2094 -11.63873,6.4626 -17.04205,9.6828 -5.40344,3.2202 -10.54192,6.4072 -15.4553,9.4882 -39.30657,24.6478 -64.16812,42.4466 -133.41156,42.4466 -17.31085,0 -17.08498,89.6342 0.0575,89.6342 z" /><path
                 id="use128"
                 style="fill:url(#linearGradient710);fill-opacity:1;fill-rule:evenodd;stroke-width:1.18602"
                 d="m 399.61679,3410.438 c 69.24355,0 94.10488,-17.7967 133.41156,-42.4443 4.91338,-3.0809 10.05197,-6.2679 15.4553,-9.4881 5.40333,-3.2201 11.0715,-6.4733 17.04216,-9.6827 22.97639,-12.3506 51.81358,-23.1061 85.96593,-29.9219 0.1115,-0.029 0.1847,-0.09 0.29654,-0.1203 0.0991,-0.026 0.27332,-0.015 0.37283,-0.042 5.56602,-1.0968 9.9682,-3.0017 15.89792,-3.8199 4.74,-0.654 9.59867,-1.213 14.58206,-1.6677 4.98327,-0.4545 10.0917,-0.8057 15.32804,-1.0424 5.23546,-0.2366 10.59872,-0.359 16.09683,-0.3591 v 0 c 87.98286,0 141.73345,31.4961 181.04013,56.1438 9.82665,6.162 18.75067,11.8936 27.69086,17.0282 13.02426,7.4805 26.25854,13.5444 42.1941,17.9526 0.9887,0.2017 1.80988,0.5133 2.80992,0.7065 16.32612,4.2233 35.40263,6.7571 60.71893,6.7571 69.2435,0 94.1047,-17.7968 133.4114,-42.4444 4.9134,-3.0809 10.052,-6.268 15.4554,-9.4882 21.6134,-12.8803 47.4576,-26.2756 80.0034,-35.3906 12.2046,-3.4182 25.3515,-6.2339 39.5719,-8.1958 4.7399,-0.654 9.5987,-1.213 14.582,-1.6677 4.9833,-0.4545 10.0917,-0.8057 15.328,-1.0424 5.2355,-0.2366 10.599,-0.359 16.097,-0.3591 v 0 c 87.983,0 141.7335,31.4961 181.04,56.1438 9.8266,6.162 18.7507,11.8936 27.691,17.0282 4.4701,2.5675 8.944,4.9857 13.5373,7.2321 22.9659,11.2319 48.9083,18.1841 92.1855,18.1841 h 0.081 c 12.1634,0 22.2139,-1.8293 33.1206,-2.9349 44.0617,-5.1733 68.4023,-19.562 100.2098,-39.5073 4.9134,-3.0808 10.0521,-6.2679 15.4554,-9.4881 16.2101,-9.6603 34.7993,-19.6113 56.8111,-27.8274 7.3373,-2.7389 15.0558,-5.2846 23.1923,-7.5633 4.0681,-1.1394 8.2403,-2.2121 12.5227,-3.2083 6.8555,-1.5949 14.7779,-2.3854 22.2148,-3.5511 2.1434,-0.4237 4.057,-0.9737 6.3124,-1.3388 2.2526,-0.365 4.9176,-0.532 7.2922,-0.8364 2.044,-0.2264 3.7248,-0.7385 5.812,-0.929 1.1893,-0.1078 2.5468,-0.069 3.7504,-0.1668 1.2848,-0.1114 2.3524,-0.3257 3.6738,-0.4215 7.3834,-0.5348 15.3452,-0.8131 24.0008,-0.8131 v 0 c 87.9829,0 141.7358,31.496 181.0424,56.1438 9.8266,6.162 18.7482,11.8936 27.6885,17.0283 8.9403,5.1348 17.8986,9.6702 27.7906,13.4355 4.9461,1.8826 10.1257,3.5738 15.6545,5.0499 5.5287,1.4761 11.4053,2.7374 17.7465,3.7642 5.8152,0.9418 12.1439,1.6296 18.828,2.159 1.3397,0.098 2.6874,0.1896 4.0446,0.2733 6.7657,0.4373 13.8479,0.7343 21.6588,0.7343 h 0.081 c 12.1632,0 22.2139,-1.8292 33.1207,-2.935 44.0618,-5.1733 68.4022,-19.5619 100.2097,-39.5071 14.7401,-9.2429 31.5121,-19.4496 51.3581,-28.5966 13.2305,-6.098 27.8277,-11.7248 44.1006,-16.2823 6.8627,-1.9221 15.3563,-2.6639 22.838,-4.1604 0.1704,-0.046 0.292,-0.1281 0.4632,-0.1737 0.3388,-0.09 0.9304,-0.052 1.2718,-0.1415 9.7541,-1.8914 18.6926,-4.3945 29.581,-5.3879 9.9654,-0.9093 20.4266,-1.4013 31.4227,-1.4015 v 0 0 c 87.9828,0 141.7359,31.4961 181.0424,56.1439 19.6532,12.3238 35.6947,22.9331 55.4791,30.4638 4.946,1.8826 10.1259,3.5736 15.6546,5.0498 3.5723,0.9537 7.5722,1.6631 11.4664,2.4323 15.6874,2.4556 31.9882,4.4647 50.5358,4.4799 0.1067,10e-5 0.1685,0.019 0.2756,0.019 69.2436,0 94.1048,-17.7966 133.4116,-42.4442 14.74,-9.243 31.512,-19.4494 51.3581,-28.5965 13.2305,-6.098 27.8277,-11.7249 44.1005,-16.2824 4.0683,-1.1394 8.2403,-2.2122 12.5227,-3.2083 4.2827,-0.9964 8.6743,-1.9152 13.1807,-2.7497 4.7186,-0.8737 9.9197,-1.3698 14.8948,-2.0454 0.1607,-0.026 0.2904,-0.068 0.4516,-0.095 0.1452,-0.025 0.364,-0.014 0.5097,-0.037 4.2211,-0.5597 8.1825,-1.3256 12.5945,-1.7282 4.9834,-0.4544 10.0917,-0.8055 15.3281,-1.0422 5.2355,-0.2367 10.5989,-0.3591 16.0968,-0.3593 v 0 c 87.9831,0 141.7358,31.4961 181.0426,56.1439 9.8266,6.1619 18.7504,11.8936 27.6907,17.0282 9.8715,5.6697 20.8302,9.6286 31.9787,13.6069 12.5362,3.1328 22.9398,7.6446 37.5219,9.2334 10.9047,1.3801 22.14,2.5758 36.2201,2.5758 69.2434,0 94.1048,-17.7967 133.4113,-42.4443 30.1511,-18.9066 69.7935,-41.0617 125.8738,-50.7209 3.4915,-0.7797 6.8347,-1.641 10.6349,-2.2563 6.3412,-1.0268 13.1449,-1.8187 20.5284,-2.3535 1.8328,-0.1329 4.052,-0.1013 5.9578,-0.2015 0.7065,-0.037 1.2347,-0.2203 1.9459,-0.2524 5.234,-0.2366 10.596,-0.3591 16.0924,-0.3593 v 0 0 c 87.983,0 87.9477,-89.641 -0.035,-89.641 -5.499,0 -10.8633,0.1224 -16.0995,0.3591 -78.5447,3.5506 -128.0909,32.6774 -164.9407,55.7848 -39.3067,24.6478 -64.168,42.4466 -133.4114,42.4466 -17.3109,0 -31.8493,-1.1127 -44.5316,-3.1666 -6.3412,-1.0268 -12.2176,-2.288 -17.7463,-3.7641 -16.5862,-4.4285 -30.0324,-10.7832 -43.4428,-18.4853 -8.9402,-5.1347 -17.8641,-10.8687 -27.6908,-17.0306 -39.3066,-24.648 -93.0595,-56.1439 -181.0424,-56.1439 -5.4989,0 -10.863,0.1224 -16.0993,0.3591 -5.2363,0.2367 -10.3446,0.5878 -15.3281,1.0422 -9.9667,0.9095 -19.4375,2.2367 -28.4505,3.9057 -4.5064,0.8345 -8.898,1.7533 -13.1807,2.7498 -4.2825,0.9961 -8.4544,2.0687 -12.5227,3.2081 -16.2729,4.5575 -30.8702,10.1844 -44.1008,16.2824 -19.8458,9.1471 -36.6179,19.3537 -51.358,28.5966 -39.3065,24.6478 -64.1679,42.4466 -133.4115,42.4466 -17.3108,0 -31.849,-1.1127 -44.5314,-3.1666 -6.3411,-1.0268 -12.2176,-2.288 -17.7464,-3.7641 -5.5286,-1.4762 -10.7085,-3.1672 -15.6547,-5.0499 -19.7842,-7.5307 -35.8257,-18.1419 -55.4789,-30.466 -39.3066,-24.648 -93.0596,-56.1439 -181.0424,-56.1439 -10.9978,0 -21.4605,0.4921 -31.4271,1.4013 -19.9337,1.8189 -37.8815,5.306 -54.1543,9.8636 -16.273,4.5575 -30.8701,10.1844 -44.1006,16.2824 -19.8459,9.1471 -36.618,19.3537 -51.358,28.5966 -34.3933,21.567 -57.7268,37.8897 -109.4107,41.6336 -7.3834,0.5349 -15.3453,0.813 -24.0008,0.813 -8.6554,0 -16.6174,-0.2781 -24.0008,-0.813 -7.3835,-0.5348 -14.1894,-1.3266 -20.5307,-2.3536 -6.3411,-1.0268 -12.2178,-2.288 -17.7464,-3.7641 -5.5288,-1.4762 -10.7084,-3.1672 -15.6545,-5.0499 -9.892,-3.7655 -18.8503,-8.3007 -27.7906,-13.4354 -8.9402,-5.1347 -17.8619,-10.8687 -27.6885,-17.0306 -39.3067,-24.648 -93.0595,-56.1439 -181.0424,-56.1439 -10.9979,0 -21.4605,0.4921 -31.4274,1.4013 -14.95,1.3643 -28.7837,3.6665 -41.6312,6.6555 -4.2824,0.9961 -8.4545,2.0687 -12.5227,3.2081 -8.1365,2.2787 -15.8552,4.8246 -23.1923,7.5633 -22.0119,8.2164 -40.601,18.1671 -56.8111,27.8275 -5.4033,3.2202 -10.5421,6.4072 -15.4555,9.4882 -34.3932,21.567 -57.7269,37.8897 -109.4107,41.6336 -7.3834,0.5349 -15.3452,0.813 -24.0007,0.813 -43.2772,0 -69.2197,-6.952 -92.1855,-18.1841 -4.5933,-2.2463 -9.0672,-4.6645 -13.5374,-7.2319 -8.9402,-5.1347 -17.8643,-10.8687 -27.6909,-17.0306 -39.3066,-24.648 -93.057,-56.1439 -181.0401,-56.1439 -5.4989,0 -10.863,0.1224 -16.0994,0.3591 -5.2363,0.2367 -10.3446,0.5878 -15.328,1.0422 -4.9833,0.4549 -9.8419,1.0141 -14.582,1.6681 -14.2202,1.9617 -27.3673,4.7772 -39.5718,8.1955 -32.5458,9.1151 -58.3901,22.5104 -80.0034,35.3908 -5.4035,3.2202 -10.5421,6.4072 -15.4554,9.4882 -39.3066,24.6478 -64.168,42.4466 -133.4115,42.4466 -25.9663,0 -45.69169,-2.5022 -62.27781,-6.9307 -16.58623,-4.4285 -30.03472,-10.7832 -43.44512,-18.4853 -8.94009,-5.1347 -17.86421,-10.8687 -27.69086,-17.0306 -39.30668,-24.648 -93.05727,-56.1439 -181.04003,-56.1439 -5.49898,0 -10.86289,0.1224 -16.09935,0.3591 -5.23623,0.2367 -10.34455,0.5878 -15.32804,1.0422 -4.98328,0.4549 -9.84195,1.0141 -14.58206,1.6681 -42.66083,5.8855 -75.66497,19.461 -102.53322,33.9035 -5.97066,3.2094 -11.63873,6.4626 -17.04205,9.6828 -5.40344,3.2202 -10.54192,6.4072 -15.4553,9.4882 -39.30657,24.6478 -64.16812,42.4466 -133.41156,42.4466 -17.31085,0 -17.08498,89.6342 0.0575,89.6342 z" /></g></g><circle
             style="opacity:1;fill:url(#linearGradient704);fill-opacity:1;stroke:none;stroke-width:55.3668;stroke-linecap:butt;stroke-miterlimit:0;stroke-dasharray:none"
             id="path132"
             cx="2225.3406"
             cy="2341.9985"
             r="295.18018" /></g><g
           id="g699"
           transform="matrix(-0.95914927,-0.22317525,0.21223893,-1.0085727,625.84201,4334.8859)"><text
             xml:space="preserve"
             style="font-style:normal;font-variant:normal;font-weight:bold;font-stretch:normal;font-size:105.889px;line-height:0;font-family:'HelveticaNeue 07472';-inkscape-font-specification:'HelveticaNeue 07472 Bold';text-align:start;letter-spacing:-7.49506px;word-spacing:0px;writing-mode:lr-tb;direction:ltr;text-anchor:start;display:inline;fill:url(#linearGradient795);fill-opacity:1;stroke:none;stroke-width:22.6623;stroke-linecap:butt;stroke-linejoin:miter;stroke-dasharray:none;paint-order:normal"
             id="text20"
             x="666.0932"
             y="2308.3198" /></g></g></g></g></svg>
